<svg width="28" height="28" viewBox="0 0 28 28" fill="none" xmlns="http://www.w3.org/2000/svg">
<g filter="url(#filter0_d)">
<path fill-rule="evenodd" clip-rule="evenodd" d="M22 0H6C4.9 0 4.01 0.9 4.01 2L4 20L8 15H22C23.1 15 24 14.1 24 13V2C24 0.9 23.1 0 22 0ZM15 11H9C8.45 11 8 10.55 8 10C8 9.45 8.45 9 9 9H15C15.55 9 16 9.45 16 10C16 10.55 15.55 11 15 11ZM19 6H9C8.45 6 8 5.55 8 5C8 4.45 8.45 4 9 4H19C19.55 4 20 4.45 20 5C20 5.55 19.55 6 19 6Z" fill="white"/>
</g>
<mask id="mask0" mask-type="alpha" maskUnits="userSpaceOnUse" x="4" y="0" width="20" height="20">
<path fill-rule="evenodd" clip-rule="evenodd" d="M22 0H6C4.9 0 4.01 0.9 4.01 2L4 20L8 15H22C23.1 15 24 14.1 24 13V2C24 0.9 23.1 0 22 0ZM15 11H9C8.45 11 8 10.55 8 10C8 9.45 8.45 9 9 9H15C15.55 9 16 9.45 16 10C16 10.55 15.55 11 15 11ZM19 6H9C8.45 6 8 5.55 8 5C8 4.45 8.45 4 9 4H19C19.55 4 20 4.45 20 5C20 5.55 19.55 6 19 6Z" fill="white"/>
</mask>
<g mask="url(#mask0)">
</g>
<defs>
<filter id="filter0_d" x="0" y="0" width="28" height="28" filterUnits="userSpaceOnUse" color-interpolation-filters="sRGB">
<feFlood flood-opacity="0" result="BackgroundImageFix"/>
<feColorMatrix in="SourceAlpha" type="matrix" values="0 0 0 0 0 0 0 0 0 0 0 0 0 0 0 0 0 0 127 0"/>
<feOffset dy="4"/>
<feGaussianBlur stdDeviation="2"/>
<feColorMatrix type="matrix" values="0 0 0 0 0 0 0 0 0 0 0 0 0 0 0 0 0 0 0.25 0"/>
<feBlend mode="normal" in2="BackgroundImageFix" result="effect1_dropShadow"/>
<feBlend mode="normal" in="SourceGraphic" in2="effect1_dropShadow" result="shape"/>
</filter>
</defs>
</svg>
